<?xml version="1.0" encoding="UTF-8" standalone="no"?>
<!-- Created with Inkscape (http://www.inkscape.org/) -->

<svg
   version="1.1"
   id="svg1"
   width="655.35999"
   height="655.35999"
   viewBox="0 0 655.35999 655.35999"
   sodipodi:docname="Av-PDF.svg"
   inkscape:version="1.4.2 (ebf0e940d0, 2025-05-08)"
   xmlns:inkscape="http://www.inkscape.org/namespaces/inkscape"
   xmlns:sodipodi="http://sodipodi.sourceforge.net/DTD/sodipodi-0.dtd"
   xmlns="http://www.w3.org/2000/svg"
   xmlns:svg="http://www.w3.org/2000/svg">
  <defs
     id="defs1" />
  <sodipodi:namedview
     id="namedview1"
     pagecolor="#ffffff"
     bordercolor="#000000"
     borderopacity="0.25"
     inkscape:showpageshadow="2"
     inkscape:pageopacity="0.0"
     inkscape:pagecheckerboard="0"
     inkscape:deskcolor="#d1d1d1"
     inkscape:zoom="1.2207032"
     inkscape:cx="327.27039"
     inkscape:cy="337.51039"
     inkscape:window-width="1920"
     inkscape:window-height="1011"
     inkscape:window-x="0"
     inkscape:window-y="0"
     inkscape:window-maximized="1"
     inkscape:current-layer="g1">
    <inkscape:page
       x="0"
       y="0"
       inkscape:label="1"
       id="page1"
       width="655.35999"
       height="655.35999"
       margin="0"
       bleed="0" />
  </sodipodi:namedview>
  <g
     id="g1"
     inkscape:groupmode="layer"
     inkscape:label="1">
    <path
       id="path2"
       d="m 327.67999,655.36 c 180.48,0 327.68133,-147.20133 327.68133,-327.68133 0,-180.47999 -147.20133,-327.67998695 -327.68133,-327.67998695 C 147.2,-0.00131695 0,147.19868 0,327.67867 0,508.15867 147.2,655.36 327.67999,655.36"
       style="fill:#e63b20;fill-opacity:1;fill-rule:evenodd;stroke:none;stroke-width:0.133333" />
    <path
       id="path3"
       d="m 196.90266,104.34535 h 201.56666 c 0.312,-0.016 0.624,-0.0253 0.94,-0.0253 6.048,0 11.596,2.548 15.828,6.80267 l 82.176,82.61466 c 4.20267,4.22667 6.72,9.74 6.72,15.75067 v 311.23466 c 0,8.05093 -3.19733,15.74 -8.88667,21.42947 -5.69066,5.69066 -13.38,8.88653 -21.42933,8.88653 H 181.54266 c -8.05066,0 -15.73733,-3.19587 -21.42933,-8.88653 -5.68933,-5.68947 -8.88667,-13.37854 -8.88667,-21.42947 v -386.0867 c 0,-8.05066 3.19734,-15.73866 8.88667,-21.42933 5.69067,-5.69067 13.37867,-8.88667 21.42933,-8.88667 h 15.36 v 0.0253 0"
       style="fill:#ffffff;fill-opacity:1;fill-rule:evenodd;stroke:none;stroke-width:0.133333" />
    <path
       id="path4"
       d="M 475.77332,520.72267 V 215.98801 h -76.364 c -3.59066,0 -6.5,-2.90933 -6.5,-6.5 v -76.83333 l -211.36666,-0.001 v 0.0253 c -0.53066,0 -1.01866,0.22267 -1.376,0.58 -0.35733,0.35733 -0.58,0.84667 -0.58,1.37733 v 386.08666 c 0,0.53067 0.22267,1.02 0.58,1.37747 0.35734,0.3572 0.84534,0.5796 1.376,0.5796 h 292.27466 c 0.532,0 1.02,-0.2224 1.37733,-0.5796 0.356,-0.35747 0.57867,-0.8468 0.57867,-1.37747 z m 13,-311.23466 v 311.23466 c 0,4.12013 -1.68133,7.86133 -4.388,10.56907 -2.70667,2.7068 -6.448,4.388 -10.568,4.388 H 181.54266 c -4.12,0 -7.86,-1.6812 -10.568,-4.388 -2.70666,-2.70774 -4.388,-6.44894 -4.388,-10.56907 V 134.63601 c 0,-4.12 1.68134,-7.86133 4.388,-10.568 2.708,-2.708 6.448,-4.38933 10.568,-4.38933 v 0.0253 l 217.29333,0.001 c 0.18933,-0.0173 0.38,-0.0253 0.57333,-0.0253 1.976,0 3.74534,0.88267 4.93867,2.27467 l 82.176,82.61466 c 1.37733,1.192 2.24933,2.95334 2.24933,4.91867 v 0"
       style="fill:#61231b;fill-opacity:1;fill-rule:nonzero;stroke:none;stroke-width:0.133333" />
    <path
       id="path5"
       d="m 313.47466,308.29201 h 17.80267 c 3.50399,0 6.33866,0.47867 8.50399,1.42667 2.15867,0.956 3.94534,2.32 5.35467,4.09866 1.408,1.788 2.428,3.85467 3.068,6.22 0.63333,2.36533 0.948,4.86533 0.948,7.51067 0,4.14533 -0.468,7.35866 -1.416,9.64266 -0.93867,2.28267 -2.24933,4.19734 -3.928,5.73067 -1.66933,1.54533 -3.46667,2.57467 -5.39067,3.08933 -2.62533,0.70267 -5.008,1.056 -7.13999,1.056 h -17.80267 z m -39.32533,0 h 19.916 c 4.33333,0 7.58266,1.02933 9.74,3.096 2.15866,2.05867 3.24133,5.00133 3.24133,8.80267 0,3.91866 -1.17333,6.97866 -3.52933,9.18133 -2.356,2.20266 -5.94934,3.304 -10.77867,3.304 h -6.55467 v 14.39066 h -12.03466 z m 171.07866,56.79333 v -74.81333 c 0,-4.27067 -1.74267,-8.148 -4.54933,-10.956 -2.808,-2.80667 -6.68534,-4.54933 -10.956,-4.54933 H 225.63733 c -4.272,0 -8.14934,1.74266 -10.956,4.54933 -2.80667,2.808 -4.54934,6.68533 -4.54934,10.956 v 74.81333 c 0,4.272 1.74267,8.14933 4.54934,10.956 2.80666,2.808 6.684,4.54933 10.956,4.54933 h 204.08533 c 4.27066,0 8.148,-1.74133 10.956,-4.54933 2.80666,-2.80667 4.54933,-6.684 4.54933,-10.956 z m -89.72933,-18.01867 v -38.77466 h 29.63066 v 8.33333 h -17.596 v 6.77067 h 15.02267 v 7.82666 h -15.02267 v 15.844 h -12.03466 v 0"
       style="fill:#61231b;fill-opacity:1;fill-rule:evenodd;stroke:none;stroke-width:0.133333" />
    <path
       id="path6"
       d="m 289.11733,324.82134 c 2.312,0 3.928,-0.39733 4.86666,-1.2 0.92934,-0.804 1.4,-1.83333 1.4,-3.07866 0,-1.21867 -0.40666,-2.25734 -1.22,-3.09734 -0.80266,-0.848 -2.32933,-1.272 -4.568,-1.272 h -3.412 v 8.648 h 2.93334"
       style="fill:#61231b;fill-opacity:1;fill-rule:evenodd;stroke:none;stroke-width:0.133333" />
    <path
       id="path7"
       d="m 325.45466,317.07601 v 21.17866 h 2.93467 c 2.50933,0 4.288,-0.27066 5.34399,-0.83066 1.056,-0.55067 1.88667,-1.52534 2.492,-2.90667 0.59467,-1.38 0.89334,-3.62933 0.89334,-6.73467 0,-4.108 -0.668,-6.91466 -2.004,-8.43199 -1.34534,-1.516 -3.56667,-2.27467 -6.67067,-2.27467 h -2.98933"
       style="fill:#61231b;fill-opacity:1;fill-rule:evenodd;stroke:none;stroke-width:0.133333" />
    <text
       xml:space="preserve"
       style="font-size:74.6667px;font-family:Allan;-inkscape-font-specification:'Allan, Normal';text-align:start;writing-mode:lr-tb;direction:ltr;text-anchor:start;fill:#61231b;fill-opacity:1"
       x="222.04192"
       y="471.03998"
       id="text7"><tspan
         sodipodi:role="line"
         id="tspan7"
         x="222.04192"
         y="471.03998"
         style="font-style:normal;font-variant:normal;font-weight:normal;font-stretch:normal;font-size:74.6667px;font-family:Allan;-inkscape-font-specification:'Allan, Normal';font-variant-ligatures:normal;font-variant-caps:normal;font-variant-numeric:normal;font-variant-east-asian:normal;fill:#61231b;fill-opacity:1">Av-PDF</tspan></text>
  </g>
</svg>
